/* XPM */
static char *_672758841711[] = {
/* columns rows colors chars-per-pixel */
"32 32 5 1 ",
"  c #3D566A",
". c #6D89A0",
"X c #436077",
"o c #5C778D",
"O c white",
/* pixels */
"                                ",
".XXXXXXXXXXXXXXXXXXXXooooooXXXX ",
".XXoooooXXXXXXoooooooooooooooXX ",
".XoooooooooXXoooooooooooooooooX ",
".XooooooooooXoooooooooooooooooX ",
".oooooooooooooooooooooooooooooo ",
".oooooooooooooooooooooooooooooo ",
".oooooooooooooooooooooooooooooX ",
".oooooooooooooooooooooooooooooX ",
".XooooooooooooooooooooooooooooX ",
".XXXooooooooooooooooooooooooooX ",
".XooooooooooooooooooooooooooXXX ",
".XXooooooooooooooooooooooooooXX ",
".XooooooooooooooooXXooooooooooX ",
".XooooooooooooooooooooooooooooX ",
".XooooooooooooooooooooooooooooX ",
".XooooooooXXooooooooooooooooooX ",
".Xooooooooooooooooooooooooooooo ",
".Xooooooooooooooooooooooooooooo ",
".Xooooooooooooooooooooooooooooo ",
".Xooooooooooooooooooooooooooooo ",
".Xooooooooooooooooooooooooooooo ",
".Xooooooooooooooooooooooooooooo ",
".Xooooooooooooooooooooooooooooo ",
".oooooooooooooooooooooooooooooX ",
".oooooooooooooooooooooooooooooX ",
".XooooooooooooooooooooooooooooX ",
".XoooooooooooooooooooooooooooXX ",
".XXXoooooooooooooooooooooooooXX ",
".XXXXXooooooooXoooooooooooooXXX ",
".XXXXXXXoooXXXXooXXXXooooXXXXXX ",
"............................... "
};
