/* XPM */
static char *_672759250963[] = {
/* columns rows colors chars-per-pixel */
"32 32 5 1 ",
"  c #434343",
". c #585858",
"X c #14A0CD",
"o c #82FFE1",
"O c None",
/* pixels */
"OOOOOOOOOOOOOOOOOOOOOOOOOOOOOOOO",
"OO.. OOOOOOOOOOOOOOOOOOOOOOOOOOO",
"OO X. OOOOOOOOOOOOOOOOOOOOOOOOOO",
"OO XX. OOOOOOOOOOOOOOOOOOOOOOOOO",
"OO XXX. OOOOOOOOOOOOOOOOOOOOOOOO",
"OO XXXX. OOOOOOOOOOOOOOOOOOOOOOO",
"OO XoXXX. OOOOOOOOOOOOOOOOOOOOOO",
"OO XXoXXX. OOOOOOOOOOOOOOOOOOOOO",
"OO XXXoXXX. OOOOOOOOOOOOOOOOOOOO",
"OO XoXXoXXX. OOOOOOOOOOOOOOOOOOO",
"OO XXoXXoXXX. OOOOOOOOOOOOOOOOOO",
"OO XXXoXXXXXX. OOOOOOOOOOOOOOOOO",
"OO XXXXXXooXXX. OOOOOOOOOOOOOOOO",
"OO XoXXXXoXoXX. OOOOOOOOOOOOOOOO",
"OO XoXXXXoXXoX. OOOOOOOOOOOOOOOO",
"OO XooXXXoXXoX. OOOOOOOOOOOOOOOO",
"OO XXXoXXoXXoX. OOOOOOOOOOOOOOOO",
"OO XXXoXXoXXoX. OOOOOOOOOOOOOOOO",
"OOO XXXoXoXXoX. OOOOOOOOOOOOOOOO",
"OOOO XXXXXoXoX. OOOOOOOOOOOOOOOO",
"OOOOO XXXXXooX. OOOOOOOOOOOOOOOO",
"OOOOOO XXXXXXX. OOOOOOOOOOOOOOOO",
"OOOOOOO XXXXXX. OOOOOOOOOOOOOOOO",
"OOOOOOOO XXXXX. OOOOOOOOOOOOOOOO",
"OOOOOOOOO XXXX. OOOOOOOOOOOOOOOO",
"OOOOOOOOOO XXX. OOOOOOOOOOOOOOOO",
"OOOOOOOOOOO XX. OOOOOOOOOOOOOOOO",
"OOOOOOOOOOOO X. OOOOOOOOOOOOOOOO",
"OOOOOOOOOOOOO . OOOOOOOOOOOOOOOO",
"OOOOOOOOOOOOOOOOOOOOOOOOOOOOOOOO",
"OOOOOOOOOOOOOOOOOOOOOOOOOOOOOOOO",
"OOOOOOOOOOOOOOOOOOOOOOOOOOOOOOOO"
};
