/* XPM */
static char *_672845356130[] = {
/* columns rows colors chars-per-pixel */
"32 32 7 1 ",
"  c #384753",
". c #586D7D",
"X c #1A79AE",
"o c #7595B1",
"O c #3DCCFF",
"+ c #ADC9E1",
"@ c None",
/* pixels */
"@@@@@@@@@@@@@@@@@@@@@@@@@@@@@@@@",
"@@@@@@@@@@@@@@@@@@@@@@@@@@@@@@@@",
"@@@@@@@@@@@@@@@@@@@@@@@@@@@@@@@@",
"@@@@@@@@@@@@@@@@@@@@@@@@@@@@@@@@",
"@@@@@@@@@@@@@@@@@@@@@@@@@@@@@@@@",
"@@@@@@@@@@@@@@@@@@@@@@@@@@@@@@@@",
"@............................@@@",
".++++++++++++++++++++++++++++.@@",
".++++++++++++++++++++++++++++.@@",
".++++++++++++++++++++++++++++.@@",
".++++++++++++++++++++++++++++.@@",
" oooooooooooooooooooooooooooo @@",
" oooooooooooooooooooooooooooo @@",
" o    .........    oooooooooo @@",
" oooooooooooooooooooooooooooo @@",
" o    .........    oXXXXXXXXo @@",
" oooooooooooooooooooXOOOXOXXo @@",
" o    .........    oXXXOXOXXo @@",
" oooooooooooooooooooXXXXXXXXo @@",
" o    .........   ooXOOOOOOXo @@",
" oooooooooooooooooooXXXXXXXXo @@",
" o    .........  oooXOOOOOOXo @@",
" oooooooooooooooooooXXXXXXXXo @@",
" o    ......... ooooXXXXXXXXo @@",
" oooooooooooooooooooooooooooo @@",
" oOOOooooooooooooooo  o  oooo @@",
" oooooooooooooooooooooooooooo @@",
"@                            @@@",
"@@@@@@@@@@@@@@@@@@@@@@@@@@@@@@@@",
"@@@@@@@@@@@@@@@@@@@@@@@@@@@@@@@@",
"@@@@@@@@@@@@@@@@@@@@@@@@@@@@@@@@",
"@@@@@@@@@@@@@@@@@@@@@@@@@@@@@@@@"
};
