/* XPM */
static char *_672847331906[] = {
/* columns rows colors chars-per-pixel */
"32 32 4 1 ",
"  c #13191E",
". c #384753",
"X c #586D7D",
"o c None",
/* pixels */
"oooooooooooooooooooooooooooooooo",
"                                ",
"XXXXXXXXXXXXXXXXXXXXXXXXXXXXXXX ",
"..............................X ",
"..............................X ",
"..............................X ",
"..............................X ",
"..............................X ",
"                       .......X ",
"                       .......X ",
"                       .......X ",
"                       .......X ",
"                       .......X ",
"                       .......X ",
"                       .......X ",
"ooooooooooooooooooooooo.......X ",
"ooooooooooooooooooooooo.......X ",
"ooooooooooooooooooooooo.......X ",
"ooooooooooooooooooooooo.......X ",
"ooooooooooooooooooooooo.......X ",
"ooooooooooooooooooooooo.......X ",
"ooooooooooooooooooooooo.......X ",
"ooooooooooooooooooooooo.......X ",
"ooooooooooooooooooooooo.......X ",
"ooooooooooooooooooooooo.......X ",
"ooooooooooooooooooooooo.......X ",
"ooooooooooooooooooooooo.......X ",
"ooooooooooooooooooooooo.......X ",
"ooooooooooooooooooooooo.......X ",
"ooooooooooooooooooooooo.......X ",
"ooooooooooooooooooooooo.......X ",
"ooooooooooooooooooooooo.......X "
};
